{"glyphs":{":":{"x_min":0,"x_max":297,"ha":297,"o":"m 49 46 l 66 208 l 229 208 l 212 46 z m 87 411 l 104 572 l 267 572 l 250 411 z"},"$":{"x_min":0,"x_max":484,"ha":484,"o":"m 191 -117 l 203 -11 q 98 -6 53 56 q 17 105 17 202 q 17 225 19 250 l 188 271 q 185 242 185 219 q 185 184 192 165 q 204 135 232 135 q 267 135 273 185 q 274 195 274 204 q 273 238 260 265 q 242 298 199 338 l 150 385 q 125 408 109 427 q 93 446 78 473 q 62 499 58 532 q 55 550 55 571 q 55 587 57 604 q 67 700 128 756 q 188 812 285 820 l 296 921 l 351 921 l 341 821 q 375 819 401 809 q 427 798 444 784 q 460 770 471 749 q 482 728 487 709 q 492 690 494 666 q 495 647 495 633 q 495 629 495 625 q 494 608 492 587 l 321 569 q 323 591 324 602 q 325 614 325 629 q 326 644 324 652 q 322 659 319 667 q 315 675 309 678 q 303 681 294 681 q 275 681 263 662 q 251 643 249 624 q 248 615 248 607 q 248 593 251 581 q 255 562 266 545 q 276 529 287 518 q 297 506 312 492 q 317 487 319 485 l 364 440 q 391 415 410 391 q 428 367 444 337 q 459 308 465 271 q 469 251 469 229 q 469 212 467 194 q 458 113 401 56 q 344 -2 257 -11 l 246 -117 z"},"?":{"x_min":0,"x_max":483,"ha":483,"o":"m 120 215 l 133 346 q 211 402 263 477 q 317 554 316 629 q 316 654 306 663 q 294 672 276 672 q 260 672 247 659 q 235 647 233 626 q 231 619 232 609 q 232 599 233 597 q 233 594 235 585 q 238 575 239 570 l 76 533 q 76 536 74 548 q 72 559 72 561 q 72 563 71 573 q 69 582 69 584 q 69 587 68 595 q 68 600 68 604 q 68 605 68 607 q 68 612 69 618 q 69 625 70 632 q 73 673 86 706 q 99 739 124 766 q 148 793 190 808 q 231 823 287 823 q 396 823 448 770 q 492 725 492 649 q 492 635 491 619 q 482 532 424 444 q 365 355 291 313 l 281 215 z m 93 0 l 110 166 l 281 166 l 264 0 z"},"<":{"x_min":0,"x_max":404,"ha":404,"o":"m 334 116 l 43 335 l 56 466 l 395 687 l 379 536 l 175 401 l 351 265 z"},"'":{"x_min":0,"x_max":192,"ha":192,"o":"m 60 496 l 92 810 l 234 810 l 144 496 z"},"=":{"x_min":0,"x_max":450,"ha":450,"o":"m 65 240 l 76 343 l 397 343 l 386 240 z m 86 432 l 96 536 l 417 536 l 407 432 z"},"a":{"x_min":0,"x_max":489,"ha":489,"o":"m 148 -11 q 114 -10 88 3 q 62 16 48 36 q 33 57 27 81 q 22 99 22 118 q 22 125 23 132 q 26 160 36 185 q 46 210 59 228 q 72 247 92 263 q 111 280 129 291 q 146 301 171 312 q 195 324 212 330 q 229 336 253 344 q 276 353 288 357 l 294 419 q 294 424 294 429 q 294 458 270 458 q 243 458 236 420 l 227 375 l 64 381 q 64 382 66 391 q 67 399 68 399 q 85 496 144 542 q 202 589 301 589 q 387 589 428 541 q 463 500 463 440 q 463 429 462 417 l 433 146 q 428 94 428 30 q 428 16 428 0 l 272 0 q 267 77 267 81 q 251 41 221 15 q 190 -11 148 -11 z m 222 105 q 244 105 263 128 l 280 286 q 241 268 214 231 q 188 194 184 164 q 184 158 184 153 q 184 134 192 121 q 204 105 222 105 z"},"L":{"x_min":0,"x_max":449,"ha":449,"o":"m 34 0 l 119 810 l 314 810 l 243 130 l 424 130 l 410 0 z"},"3":{"x_min":0,"x_max":547,"ha":547,"o":"m 254 -17 q 202 -17 163 -4 q 125 8 101 31 q 78 55 65 88 q 52 121 50 161 q 49 172 50 185 q 50 215 53 249 l 56 278 l 238 278 q 238 277 236 262 q 234 247 234 247 q 231 220 231 200 q 231 174 236 160 q 245 137 273 137 q 300 137 312 158 q 323 180 329 234 q 332 255 332 272 q 332 307 322 325 q 309 353 261 353 l 227 353 l 240 470 l 270 470 q 320 470 339 497 q 359 524 366 587 q 368 604 368 618 q 368 643 362 657 q 353 679 325 679 q 299 679 287 656 q 275 632 270 586 q 265 539 265 538 l 83 538 l 89 593 q 101 704 167 764 q 234 824 339 824 q 448 824 503 767 q 548 720 548 637 q 548 620 546 601 q 539 533 506 483 q 474 434 433 423 q 476 406 496 364 q 511 334 511 284 q 511 264 508 240 q 502 183 485 137 q 468 91 438 56 q 408 21 362 2 q 315 -17 254 -17 z"},";":{"x_min":0,"x_max":301,"ha":301,"o":"m 56 -135 l 54 -81 q 88 -74 110 -55 q 133 -37 137 5 l 45 5 l 62 167 l 227 167 l 212 30 q 204 -50 164 -92 q 125 -134 56 -135 z m 87 416 l 104 577 l 268 577 l 251 416 z"},"J":{"x_min":0,"x_max":360,"ha":360,"o":"m -13 -21 l 1 114 q 5 114 8 114 q 55 114 75 128 q 97 143 102 187 l 167 810 l 362 810 l 295 178 q 289 126 276 91 q 263 56 238 30 q 214 3 176 -9 q 137 -21 82 -21 z"},"V":{"x_min":0,"x_max":526,"ha":526,"o":"m 133 0 l 80 810 l 244 810 l 265 272 l 392 810 l 568 810 l 343 0 z"},"\"":{"x_min":0,"x_max":349,"ha":349,"o":"m 40 496 l 73 810 l 222 810 l 119 496 z m 236 496 l 268 810 l 417 810 l 314 496 z"},"7":{"x_min":0,"x_max":547,"ha":547,"o":"m 96 0 l 351 673 l 126 673 l 141 810 l 542 810 l 528 679 l 274 0 z"},"S":{"x_min":0,"x_max":520,"ha":520,"o":"m 251 -12 q 132 -12 82 48 q 41 98 41 201 q 41 224 42 250 l 211 271 q 208 241 208 218 q 208 184 215 165 q 227 135 255 135 q 290 135 296 185 q 297 195 297 204 q 297 238 283 265 q 266 298 223 338 l 173 385 q 148 408 133 427 q 117 446 102 472 q 86 499 81 532 q 78 550 78 570 q 78 586 80 604 q 90 708 159 765 q 228 822 338 822 q 376 822 406 813 q 437 804 456 790 q 475 776 488 755 q 501 734 507 715 q 513 695 516 670 q 518 649 518 632 q 518 629 518 626 q 517 607 515 587 l 344 569 q 349 603 349 627 q 349 641 347 651 q 343 681 318 681 q 318 681 317 681 q 298 681 286 662 q 274 644 272 624 q 271 615 271 607 q 271 593 274 581 q 278 562 289 546 q 299 530 310 518 q 320 506 334 492 q 339 488 342 485 l 388 440 q 415 414 433 391 q 451 367 467 337 q 482 308 488 271 q 491 251 492 229 q 492 212 490 194 q 480 106 415 47 q 349 -12 251 -12 z"},"}":{"x_min":0,"x_max":394,"ha":394,"o":"m -10 -194 l 2 -78 q 31 -78 46 -74 q 62 -71 73 -58 q 83 -45 88 -25 q 93 -4 98 35 l 105 109 q 110 156 117 189 q 125 222 137 250 q 150 278 170 295 q 190 312 219 318 q 183 327 165 354 q 147 382 146 425 q 145 435 145 445 q 145 481 149 527 l 157 602 q 161 631 161 649 q 160 650 160 651 q 160 670 157 683 q 154 697 144 703 q 135 709 122 711 q 108 714 85 714 l 98 830 q 181 830 228 818 q 276 805 297 779 q 318 752 321 711 q 322 698 323 682 q 323 651 318 613 l 311 547 q 303 475 303 438 q 303 418 306 408 q 312 382 360 382 l 347 254 q 299 254 287 230 q 275 205 263 89 l 256 23 q 252 -8 249 -30 q 246 -52 239 -75 q 232 -98 223 -113 q 214 -128 200 -143 q 186 -157 167 -166 q 148 -174 123 -181 q 97 -188 64 -191 q 32 -194 -10 -194 z"},"Z":{"x_min":0,"x_max":437,"ha":437,"o":"m 6 0 l 18 114 l 265 679 l 84 679 l 98 810 l 468 810 l 457 697 l 208 130 l 399 130 l 386 0 z"},"x":{"x_min":0,"x_max":456,"ha":456,"o":"m -14 0 l 141 320 l 54 578 l 233 578 l 277 450 l 340 578 l 470 578 l 330 293 l 429 0 l 249 0 l 199 150 l 130 0 z"},")":{"x_min":0,"x_max":344,"ha":344,"o":"m -6 -175 l 7 -50 q 40 -50 63 -13 q 87 24 104 104 q 121 183 135 317 q 146 420 149 487 q 150 513 150 535 q 150 573 147 603 q 142 651 127 673 q 112 695 85 695 l 98 819 q 136 819 166 811 q 196 803 219 789 q 241 775 257 752 q 274 729 285 704 q 295 679 301 644 q 308 608 310 574 q 311 552 311 525 q 311 511 311 495 q 310 450 306 409 q 303 369 297 317 q 292 270 287 232 q 282 194 274 151 q 266 107 257 74 q 248 40 234 5 q 221 -30 205 -56 q 188 -82 167 -106 q 146 -129 120 -144 q 95 -159 63 -167 q 31 -175 -6 -175 z"},"&":{"x_min":0,"x_max":561,"ha":561,"o":"m 197 -14 q 115 -14 68 40 q 28 85 28 152 q 28 165 29 178 q 37 247 77 318 q 117 389 170 437 q 163 455 148 489 q 134 523 126 542 q 119 562 114 589 q 111 608 110 625 q 110 634 111 642 q 119 718 172 770 q 225 823 302 823 q 382 823 429 775 q 468 735 468 670 q 468 658 467 646 q 464 618 455 592 q 445 566 435 547 q 424 528 406 507 q 387 485 375 472 q 362 460 340 439 q 318 418 308 409 l 378 235 q 392 254 405 307 q 418 361 423 405 l 535 405 q 525 314 506 257 q 486 199 451 139 q 458 128 475 119 q 491 111 510 108 l 497 -11 q 478 -17 464 -17 q 443 -17 421 -5 q 399 6 386 17 q 374 28 354 47 q 351 51 350 52 q 320 20 281 3 q 241 -14 197 -14 z m 213 101 q 256 101 281 131 q 225 292 218 319 q 171 252 165 193 q 164 185 164 177 q 164 146 177 126 q 192 101 213 101 z m 271 501 q 272 505 286 531 q 300 557 308 574 q 317 592 326 616 q 335 640 337 655 q 337 658 337 661 q 337 679 327 689 q 315 702 298 702 q 281 702 267 688 q 253 675 251 651 q 250 645 250 637 q 250 611 259 563 q 271 502 271 501 z"},"_":{"x_min":0,"x_max":373,"ha":373,"o":"m -42 -174 l -31 -58 l 342 -58 l 331 -174 z"},"v":{"x_min":0,"x_max":430,"ha":430,"o":"m 101 0 l 45 578 l 213 578 l 219 232 l 293 578 l 460 578 l 279 0 z"},"O":{"x_min":0,"x_max":597,"ha":597,"o":"m 286 123 q 303 123 314 130 q 326 138 332 152 q 338 166 341 177 q 343 189 345 206 l 387 604 q 389 618 389 632 q 388 647 385 659 q 382 671 372 679 q 362 687 345 687 q 329 687 317 679 q 306 672 300 658 q 294 645 292 633 q 290 622 288 604 l 246 206 q 245 192 244 183 q 244 174 245 161 q 246 149 250 141 q 254 134 263 128 q 272 123 286 123 z m 271 -12 q 203 -12 156 6 q 109 23 84 59 q 60 94 52 142 q 48 167 48 197 q 48 225 51 255 l 83 554 q 89 620 107 668 q 125 716 157 751 q 189 787 240 804 q 291 822 359 822 q 428 822 475 804 q 522 786 548 751 q 573 716 581 668 q 585 642 585 611 q 585 584 582 554 l 551 255 q 537 123 472 55 q 407 -12 271 -12 z"},"(":{"x_min":0,"x_max":348,"ha":348,"o":"m 269 -175 q 267 -175 265 -175 q 220 -175 185 -162 q 148 -147 125 -124 q 101 -101 86 -63 q 71 -26 64 13 q 57 53 57 106 q 57 114 57 122 q 57 167 59 208 q 62 256 69 317 q 74 369 80 410 q 85 450 93 495 q 101 540 110 574 q 120 608 133 643 q 146 678 162 704 q 178 729 199 752 q 221 775 246 789 q 271 803 303 811 q 335 819 373 819 l 360 695 q 308 695 280 608 q 252 521 231 317 q 217 188 217 107 q 217 63 221 34 q 232 -51 282 -50 z"},"C":{"x_min":0,"x_max":574,"ha":574,"o":"m 272 -12 q 203 -12 156 6 q 109 24 85 61 q 61 97 53 145 q 49 170 48 201 q 48 228 52 259 l 83 550 q 89 616 107 665 q 125 713 157 749 q 189 785 240 803 q 291 822 360 822 q 428 822 474 805 q 520 788 543 755 q 567 723 574 682 q 579 658 579 631 q 579 610 576 588 l 568 516 l 376 516 l 386 604 q 387 615 387 623 q 388 630 388 641 q 388 652 385 659 q 383 666 378 673 q 374 680 366 683 q 357 687 346 687 q 329 687 317 679 q 306 672 299 658 q 293 644 290 632 q 288 620 286 602 l 245 208 q 243 187 243 168 q 243 149 254 136 q 265 123 287 123 q 303 123 315 130 q 326 138 332 152 q 338 167 340 178 q 342 189 344 208 l 354 298 l 545 298 l 538 227 q 534 185 523 150 q 512 115 492 84 q 472 54 443 33 q 414 12 370 0 q 327 -12 272 -12 z"},"W":{"x_min":0,"x_max":690,"ha":690,"o":"m 89 0 l 86 810 l 251 810 l 244 365 l 339 810 l 467 810 l 475 369 l 561 810 l 725 810 l 550 0 l 376 0 l 367 462 l 265 0 z"},"A":{"x_min":0,"x_max":565,"ha":565,"o":"m -2 0 l 231 810 l 457 810 l 519 0 l 340 0 l 331 164 l 224 164 l 182 0 z m 251 276 l 326 276 l 321 581 z"},"f":{"x_min":0,"x_max":329,"ha":329,"o":"m 43 0 l 92 461 l 41 461 l 52 578 l 104 578 l 109 624 q 113 658 118 681 q 124 704 136 726 q 148 749 168 762 q 187 776 219 784 q 250 792 294 792 q 330 792 373 788 l 359 657 q 333 661 326 661 q 290 661 285 624 l 280 578 l 351 578 l 338 461 l 269 461 l 220 0 z"},"Q":{"x_min":0,"x_max":597,"ha":597,"o":"m 439 -167 q 407 -153 361 -107 q 314 -60 288 -12 q 283 -12 271 -12 q 203 -12 156 6 q 109 23 84 59 q 60 94 52 142 q 48 167 48 197 q 48 225 51 255 l 83 554 q 89 620 107 668 q 125 716 157 751 q 189 787 240 804 q 291 822 359 822 q 428 822 475 804 q 522 786 548 751 q 573 716 581 668 q 585 642 585 611 q 585 584 582 554 l 551 255 q 532 77 422 19 q 439 -4 466 -32 q 494 -59 514 -74 z m 286 123 q 303 123 314 130 q 326 138 332 152 q 338 166 341 177 q 343 189 345 206 l 387 604 q 389 615 389 627 q 389 630 389 632 q 388 647 385 659 q 382 671 372 679 q 362 687 345 687 q 329 687 317 679 q 306 672 300 658 q 294 645 292 633 q 290 622 288 604 l 246 206 q 245 191 244 183 q 244 180 244 177 q 244 170 245 161 q 246 148 250 141 q 254 134 263 128 q 272 123 286 123 z"},"w":{"x_min":0,"x_max":600,"ha":600,"o":"m 78 0 l 56 578 l 203 578 l 208 273 l 279 578 l 405 578 l 402 264 l 480 578 l 617 578 l 471 0 l 320 0 l 309 305 l 227 0 z"},"-":{"x_min":0,"x_max":402,"ha":402,"o":"m 75 308 l 86 417 l 354 417 l 343 308 z"},"E":{"x_min":0,"x_max":458,"ha":458,"o":"m 34 0 l 119 810 l 496 810 l 482 678 l 300 678 l 281 495 l 417 495 l 403 359 l 267 359 l 243 130 l 427 130 l 413 0 z"},"s":{"x_min":0,"x_max":435,"ha":435,"o":"m 204 -11 q 129 -11 82 21 q 35 54 7 130 l 130 185 q 146 147 167 126 q 186 107 207 106 q 209 106 212 107 q 224 108 233 117 q 243 126 244 140 q 244 147 240 155 q 236 163 227 173 q 217 184 209 191 q 201 199 187 211 q 173 224 166 230 l 140 254 q 100 292 73 337 q 51 375 51 411 q 51 418 52 425 q 57 471 87 509 q 117 547 162 568 q 206 589 254 589 q 326 589 372 551 q 418 514 434 441 l 314 386 q 307 415 290 440 q 273 465 252 466 q 235 468 225 459 q 214 451 212 439 q 211 432 214 423 q 218 414 229 401 q 239 389 246 382 q 253 375 271 359 q 290 342 295 337 l 318 315 q 362 272 377 254 q 412 209 412 163 q 412 156 411 149 q 403 76 342 33 q 281 -11 204 -11 z"},">":{"x_min":0,"x_max":404,"ha":404,"o":"m 41 116 l 57 265 l 261 401 l 85 536 l 101 687 l 394 466 l 380 335 z"},"l":{"x_min":0,"x_max":285,"ha":285,"o":"m 31 0 l 116 810 l 293 810 l 208 0 z"},"8":{"x_min":0,"x_max":546,"ha":546,"o":"m 248 -14 q 198 -14 160 -2 q 123 11 99 34 q 76 57 62 89 q 48 121 46 160 q 45 173 45 187 q 45 214 48 245 q 55 305 83 355 q 111 405 158 426 q 129 450 111 494 q 98 528 98 574 q 98 587 99 601 q 107 706 169 763 q 231 821 335 821 q 440 821 489 763 q 526 718 526 645 q 526 624 523 601 q 516 538 490 493 q 463 449 429 426 q 472 405 489 355 q 503 316 503 271 q 503 258 502 245 q 498 186 481 140 q 464 94 435 59 q 405 23 357 5 q 310 -14 248 -14 z m 261 118 q 271 118 280 123 q 288 127 293 134 q 299 140 304 151 q 309 162 311 170 q 313 178 316 191 q 318 205 319 211 q 319 217 321 229 q 323 248 324 259 q 325 270 325 286 q 326 302 324 311 q 322 320 318 330 q 313 340 305 344 q 297 349 286 349 q 274 349 265 344 q 256 340 250 330 q 244 320 240 311 q 236 302 233 285 q 230 268 229 259 q 227 249 225 229 q 224 216 223 208 q 223 199 222 185 q 222 182 222 179 q 222 168 224 159 q 226 149 230 139 q 234 129 242 124 q 250 118 261 118 z m 300 488 q 342 488 354 605 q 355 619 355 630 q 355 651 350 665 q 341 687 321 687 q 300 687 287 666 q 273 645 269 606 q 267 580 267 560 q 267 488 300 488 z"},"\\":{"x_min":0,"x_max":435,"ha":435,"o":"m 278 0 l 107 810 l 194 810 l 364 0 z"},"e":{"x_min":0,"x_max":481,"ha":481,"o":"m 221 -11 q 127 -11 75 39 q 31 81 31 149 q 31 162 33 175 l 57 403 q 65 490 128 540 q 190 589 284 589 q 378 589 426 543 q 466 504 466 436 q 466 423 464 410 l 450 277 l 217 277 l 206 168 q 205 160 205 154 q 205 114 233 114 q 271 114 276 161 l 283 229 l 445 229 l 438 163 q 429 78 371 34 q 313 -11 221 -11 z m 226 357 l 297 357 l 303 416 q 304 421 304 426 q 304 464 270 464 q 238 464 232 411 z"},"b":{"x_min":0,"x_max":520,"ha":520,"o":"m 331 -11 q 267 -11 207 44 l 202 0 l 26 0 l 111 810 l 287 810 l 259 536 q 326 589 389 589 q 392 589 395 589 q 453 586 480 545 q 501 513 501 461 q 501 446 499 430 l 470 154 q 462 77 424 33 q 387 -11 331 -11 z m 250 100 q 251 100 252 100 q 269 100 279 112 q 290 125 292 144 l 324 445 q 324 449 324 452 q 324 467 317 477 q 310 487 296 487 q 294 487 291 487 q 274 485 251 470 l 214 112 q 233 101 250 100 z"},"%":{"x_min":0,"x_max":1034,"ha":1034,"o":"m 267 452 q 283 452 293 458 q 304 463 311 471 q 317 479 322 496 q 327 513 329 528 q 331 544 334 572 l 336 587 q 341 629 341 653 q 341 678 331 688 q 320 699 293 699 q 277 699 267 695 q 256 690 250 684 q 243 677 239 661 q 234 645 232 631 q 230 617 228 588 l 226 572 q 221 530 221 504 q 221 479 231 465 q 242 452 267 452 z m 256 342 q 149 342 109 396 q 79 436 79 513 q 79 537 82 564 l 85 594 q 98 711 147 760 q 196 810 305 810 q 413 811 453 761 q 483 723 484 646 q 484 622 481 595 l 478 564 q 466 449 414 396 q 363 342 256 342 z m 775 109 q 788 109 798 112 q 807 115 814 123 q 821 130 825 139 q 830 147 833 163 q 836 179 838 192 q 840 206 842 229 l 844 244 q 849 287 849 311 q 850 335 839 346 q 828 356 802 356 q 792 356 784 355 q 776 354 770 350 q 764 346 760 343 q 755 339 752 331 q 748 322 746 316 q 744 310 742 296 q 740 283 739 273 q 738 264 736 245 l 734 229 q 729 187 729 162 q 729 136 740 123 q 750 109 775 109 z m 764 0 q 658 -1 618 53 q 588 94 587 171 q 587 194 590 222 l 593 251 q 606 368 655 418 q 704 467 813 467 q 922 468 962 418 q 992 380 992 303 q 992 279 989 252 l 986 221 q 974 106 923 53 q 871 0 764 0 z m 319 0 l 659 810 l 749 810 l 409 0 z"},"m":{"x_min":0,"x_max":770,"ha":770,"o":"m 26 0 l 86 578 l 262 578 l 257 533 q 322 589 401 589 q 436 589 459 571 q 483 553 493 521 q 562 589 649 589 q 701 589 727 551 q 748 521 748 475 q 748 462 746 449 l 699 0 l 523 0 l 568 428 q 569 433 569 437 q 569 465 544 465 q 543 465 542 465 q 521 464 498 452 q 498 449 497 448 l 450 0 l 276 0 l 321 428 q 321 433 321 437 q 321 465 297 465 q 296 465 294 465 q 273 464 249 451 l 201 0 z"},"#":{"x_min":0,"x_max":545,"ha":545,"o":"m 55 0 l 112 264 l 54 264 l 68 371 l 139 371 l 164 491 l 82 491 l 97 599 l 195 599 l 239 810 l 345 810 l 300 599 l 375 599 l 419 810 l 524 810 l 479 599 l 534 599 l 519 491 l 448 491 l 422 371 l 505 371 l 490 264 l 396 264 l 337 0 l 234 0 l 291 264 l 216 264 l 158 0 z m 242 371 l 318 371 l 344 491 l 269 491 z"},",":{"x_min":0,"x_max":251,"ha":251,"o":"m 31 -142 l 28 -88 q 62 -80 85 -61 q 107 -42 112 0 l 20 0 l 37 163 l 202 163 l 187 25 q 178 -55 139 -97 q 100 -140 31 -142 z"},"n":{"x_min":0,"x_max":524,"ha":524,"o":"m 26 0 l 86 578 l 263 578 l 257 520 q 333 589 403 589 q 456 589 481 551 q 502 521 502 475 q 502 462 500 449 l 454 0 l 277 0 l 322 428 q 324 447 319 457 q 313 466 297 465 q 276 464 249 449 l 202 0 z"},"h":{"x_min":0,"x_max":524,"ha":524,"o":"m 26 0 l 111 810 l 287 810 l 258 529 q 325 589 404 589 q 456 589 482 551 q 502 521 502 475 q 502 462 501 449 l 454 0 l 278 0 l 323 428 q 325 448 319 457 q 313 466 298 465 q 277 464 249 448 l 202 0 z"},"z":{"x_min":0,"x_max":403,"ha":403,"o":"m 11 0 l 23 113 l 214 450 l 69 450 l 83 578 l 409 578 l 397 469 l 207 129 l 366 129 l 353 0 z"},"B":{"x_min":0,"x_max":604,"ha":604,"o":"m 34 0 l 119 810 l 337 810 q 383 810 418 806 q 453 802 489 789 q 525 776 546 753 q 567 730 578 690 q 584 666 585 636 q 585 617 582 595 q 564 458 447 435 q 515 428 547 378 q 572 339 572 276 q 572 260 571 243 q 549 0 292 0 z m 244 136 l 272 136 q 327 136 352 163 q 377 190 383 246 q 385 263 385 278 q 385 319 371 338 q 353 364 297 364 l 268 364 z m 281 489 l 309 489 q 363 489 384 514 q 406 539 412 590 q 412 597 412 603 q 412 634 395 656 q 374 681 333 681 l 301 681 z"},"K":{"x_min":0,"x_max":583,"ha":583,"o":"m 34 0 l 119 810 l 314 810 l 281 492 l 439 810 l 631 810 l 445 442 l 549 0 l 348 0 l 278 353 l 265 337 l 229 0 z"},"R":{"x_min":0,"x_max":609,"ha":609,"o":"m 34 0 l 119 810 l 357 810 q 409 810 448 804 q 488 799 522 784 q 557 770 577 746 q 598 723 607 685 q 613 660 614 631 q 614 614 612 596 q 604 518 574 468 q 544 418 481 388 l 565 0 l 369 0 l 310 358 l 267 358 l 229 0 z m 278 466 l 329 466 q 378 466 401 495 q 424 523 429 575 q 431 589 431 601 q 431 634 419 653 q 404 681 361 681 l 301 681 z"},"T":{"x_min":0,"x_max":458,"ha":458,"o":"m 107 0 l 177 666 l 58 666 l 73 810 l 506 810 l 491 666 l 372 666 l 302 0 z"},"P":{"x_min":0,"x_max":588,"ha":588,"o":"m 34 0 l 119 810 l 408 810 q 516 810 564 749 q 603 701 603 617 q 603 596 601 572 q 594 514 577 471 q 559 428 535 402 q 511 377 477 362 q 442 347 409 342 q 375 336 333 336 l 265 336 l 229 0 z m 279 471 l 341 471 q 363 471 377 478 q 391 484 399 499 q 408 514 412 531 q 416 548 418 576 q 420 589 420 602 q 420 607 420 612 q 419 629 415 643 q 410 657 396 665 q 383 673 360 673 l 300 673 z"},"|":{"x_min":0,"x_max":268,"ha":268,"o":"m 19 -187 l 124 810 l 266 810 l 161 -187 z"},"t":{"x_min":0,"x_max":364,"ha":364,"o":"m 191 -6 q 162 -5 140 2 q 118 10 103 21 q 88 33 79 51 q 69 68 64 86 q 60 104 59 128 q 58 142 58 154 q 58 163 59 173 q 60 193 62 221 l 88 463 l 34 463 l 46 578 l 100 578 l 119 756 l 298 756 l 279 578 l 359 578 l 347 463 l 267 463 l 237 182 q 237 179 237 177 q 237 159 249 150 q 262 140 284 139 q 291 138 297 138 q 304 139 310 139 q 315 140 320 141 q 324 142 327 143 l 330 143 l 315 2 q 255 -7 210 -7 q 200 -7 191 -6 z"},"M":{"x_min":0,"x_max":711,"ha":711,"o":"m 30 0 l 128 810 l 340 810 l 372 383 l 501 810 l 704 810 l 633 0 l 496 0 l 537 527 l 396 0 l 272 0 l 238 532 l 168 0 z"},"g":{"x_min":0,"x_max":517,"ha":517,"o":"m 234 -172 q 212 -172 193 -172 q 174 -171 147 -168 q 121 -166 100 -161 q 80 -156 58 -147 q 37 -139 23 -127 q 9 -115 1 -97 q -5 -83 -5 -67 q -5 -62 -4 -57 q -1 -27 25 0 q 51 26 90 54 q 53 69 38 84 q 22 99 20 119 q 19 124 19 128 q 20 142 23 153 q 29 169 43 185 q 57 200 70 211 q 83 222 104 238 q 56 276 56 349 q 56 361 57 374 q 68 483 130 536 q 191 589 292 589 q 334 589 369 577 q 404 564 422 542 q 467 587 507 608 l 531 619 l 563 538 q 522 524 462 491 q 483 459 483 407 q 483 393 481 376 q 472 283 417 231 q 361 179 263 179 q 205 179 162 199 q 138 173 139 159 q 141 146 192 138 q 208 135 255 128 q 301 122 326 118 q 413 105 443 73 q 469 46 469 0 q 469 -10 468 -20 q 452 -172 234 -172 z m 246 -67 q 284 -67 303 -60 q 322 -53 327 -36 q 329 -26 329 -20 q 329 -7 321 0 q 310 11 275 16 l 191 28 q 167 -7 166 -26 q 165 -28 165 -30 q 165 -48 182 -57 q 201 -67 246 -67 z m 314 384 q 316 406 317 417 q 318 429 318 443 q 318 444 318 446 q 318 457 316 463 q 314 470 311 476 q 307 482 300 484 q 294 486 284 486 q 273 486 265 482 q 258 477 253 470 q 249 464 245 449 q 242 435 240 423 q 239 412 236 389 q 236 385 236 384 q 231 354 231 333 q 231 318 233 308 q 238 282 263 282 q 288 282 298 304 q 308 326 314 384 z"},"j":{"x_min":0,"x_max":288,"ha":288,"o":"m -49 -174 l -36 -47 q -15 -51 -7 -51 q 33 -51 38 -8 l 99 578 l 275 578 l 211 -29 q 204 -101 160 -145 q 117 -188 44 -188 q 3 -188 -49 -174 z m 109 678 l 121 793 l 298 793 l 286 678 z"},"i":{"x_min":0,"x_max":275,"ha":275,"o":"m 25 0 l 86 578 l 262 578 l 202 0 z m 96 678 l 108 793 l 285 793 l 273 678 z"},"y":{"x_min":0,"x_max":461,"ha":461,"o":"m 29 -174 l 42 -54 q 91 -54 113 -44 q 135 -34 138 -1 q 138 1 138 4 q 138 27 126 93 l 37 578 l 201 578 l 240 268 l 323 578 l 487 578 l 287 -32 q 241 -174 62 -174 q 59 -174 55 -174 z"},"@":{"x_min":0,"x_max":962,"ha":962,"o":"m 435 -125 q 341 -125 268 -103 q 196 -80 149 -38 q 102 4 76 64 q 51 125 51 201 q 51 277 71 367 q 94 463 141 543 q 188 624 256 684 q 324 743 415 777 q 506 810 611 810 q 683 810 741 795 q 799 781 840 753 q 881 726 909 688 q 937 649 949 600 q 961 553 961 499 q 961 497 961 495 q 961 438 947 374 q 939 338 925 302 q 911 267 886 229 q 861 192 830 164 q 799 136 755 118 q 711 100 661 100 q 615 100 578 117 q 541 135 530 170 q 515 145 487 129 q 459 112 429 110 q 420 109 412 109 q 366 109 333 132 q 294 160 278 209 q 269 240 269 275 q 269 298 273 322 q 278 357 290 394 q 302 431 324 471 q 346 512 373 543 q 401 574 442 594 q 482 615 529 615 q 544 615 556 609 q 568 603 574 595 q 581 587 586 575 q 591 563 593 556 q 594 548 596 538 q 597 536 597 535 l 615 609 l 757 609 l 684 292 q 672 247 672 223 q 672 202 681 199 q 688 196 695 196 q 713 196 733 211 q 763 231 789 276 q 815 320 827 375 q 841 439 841 491 q 841 709 588 709 q 520 709 461 691 q 403 672 360 641 q 318 610 284 565 q 251 521 229 472 q 208 424 194 368 q 176 295 173 236 q 172 228 173 219 q 173 170 186 129 q 201 80 235 47 q 269 15 326 -3 q 383 -21 463 -21 q 502 -21 564 -11 q 625 -1 668 13 l 675 -93 q 527 -125 435 -125 z m 479 224 l 485 224 q 492 224 500 225 q 507 225 515 228 q 523 230 527 234 l 581 470 q 581 471 581 472 q 581 479 572 482 q 562 486 553 486 q 525 486 501 471 q 477 455 461 430 q 445 405 436 377 q 426 349 423 321 q 421 310 421 299 q 421 271 431 251 q 443 224 478 224 q 479 224 479 224 z"},".":{"x_min":0,"x_max":257,"ha":257,"o":"m 21 0 l 38 163 l 204 163 l 187 0 z"},"p":{"x_min":0,"x_max":519,"ha":519,"o":"m 6 -190 l 86 578 l 263 578 l 259 537 q 326 589 388 589 q 391 589 394 589 q 452 586 479 545 q 500 513 500 461 q 500 446 498 430 l 469 154 q 461 77 423 33 q 386 -11 330 -11 q 266 -11 207 44 l 182 -190 z m 248 100 q 249 100 250 100 q 266 100 277 112 q 289 125 291 144 l 323 445 q 323 449 323 452 q 323 466 315 477 q 308 487 294 487 q 292 487 289 487 q 275 485 251 470 l 214 112 q 233 100 248 100 z"},"X":{"x_min":0,"x_max":521,"ha":521,"o":"m -20 0 l 182 439 l 73 810 l 259 810 l 318 606 l 401 810 l 562 810 l 382 383 l 493 0 l 311 0 l 244 226 l 139 0 z"},"*":{"x_min":0,"x_max":429,"ha":429,"o":"m 199 445 l 102 507 l 182 606 l 82 646 l 131 751 l 220 699 l 218 810 l 350 810 l 326 698 l 425 751 l 453 646 l 343 605 l 404 507 l 293 445 l 256 547 z"},"Y":{"x_min":0,"x_max":495,"ha":495,"o":"m 131 0 l 167 342 l 68 810 l 251 810 l 294 586 l 374 810 l 550 810 l 354 342 l 318 0 z"},"c":{"x_min":0,"x_max":482,"ha":482,"o":"m 220 -11 q 127 -11 75 39 q 32 81 31 149 q 31 161 33 174 l 57 404 q 65 491 127 540 q 189 589 283 589 q 377 589 428 545 q 470 508 471 442 q 471 430 469 417 l 462 349 l 291 349 l 298 422 q 299 430 299 437 q 299 453 293 459 q 286 469 271 469 q 241 469 235 417 l 208 162 q 208 155 208 148 q 208 110 233 110 q 249 110 258 120 q 268 130 271 157 l 279 240 l 451 240 l 443 163 q 434 78 374 34 q 314 -11 220 -11 z"},"!":{"x_min":0,"x_max":269,"ha":269,"o":"m 21 0 l 38 162 l 203 162 l 186 0 z m 97 214 l 109 807 l 284 807 l 158 214 z"},"/":{"x_min":0,"x_max":435,"ha":435,"o":"m 22 0 l 362 810 l 449 810 l 108 0 z"},"[":{"x_min":0,"x_max":331,"ha":331,"o":"m 5 -185 l 110 810 l 368 810 l 362 745 l 235 745 l 143 -120 l 270 -120 l 263 -185 z"},"6":{"x_min":0,"x_max":547,"ha":547,"o":"m 254 -13 q 194 -13 152 7 q 109 26 86 62 q 63 98 55 146 q 50 172 50 204 q 50 228 53 253 l 84 551 q 89 601 99 640 q 109 679 128 714 q 147 750 175 772 q 203 795 245 809 q 287 822 341 822 q 401 822 440 808 q 480 795 500 768 q 521 740 527 702 q 531 682 530 658 q 530 636 528 611 l 526 597 l 357 597 q 361 630 361 648 q 361 661 359 667 q 354 687 328 687 q 297 687 287 658 q 277 629 267 528 l 261 469 q 274 488 301 499 q 328 510 360 511 q 363 511 366 511 q 400 511 426 501 q 455 490 473 469 q 490 447 501 418 q 511 388 513 353 q 513 342 513 331 q 513 306 511 278 q 505 224 494 181 q 483 138 464 101 q 444 63 416 39 q 388 15 347 1 q 307 -13 254 -13 z m 271 119 q 298 119 308 147 q 318 176 327 253 q 332 287 332 312 q 332 327 330 340 q 325 372 296 373 q 281 373 267 364 q 253 354 247 345 l 233 211 q 231 195 231 182 q 231 119 271 119 z"},"r":{"x_min":0,"x_max":383,"ha":383,"o":"m 28 0 l 88 578 l 265 578 l 254 479 q 317 585 378 585 q 390 585 402 581 l 386 432 q 381 433 370 433 q 297 428 242 358 l 204 0 z"},"2":{"x_min":0,"x_max":547,"ha":547,"o":"m 35 0 l 48 128 l 268 421 q 271 425 292 453 q 314 481 322 494 q 331 506 345 529 q 360 553 367 572 q 374 591 375 610 q 376 617 376 623 q 377 646 364 658 q 353 669 337 669 q 331 669 323 667 q 299 662 285 639 q 271 616 265 565 l 261 523 l 86 523 l 91 569 q 97 624 115 669 q 133 714 164 750 q 194 785 242 804 q 290 824 351 824 q 461 823 513 767 q 557 719 557 641 q 557 625 555 607 q 553 591 549 575 q 546 559 539 542 q 532 525 527 512 q 522 500 511 482 q 500 464 494 455 q 489 446 474 426 q 459 407 455 400 q 450 394 433 372 q 416 351 412 346 l 251 141 l 482 141 l 468 0 z"},"{":{"x_min":0,"x_max":392,"ha":392,"o":"m 314 -194 q 231 -194 184 -181 q 136 -169 115 -143 q 94 -116 91 -75 q 90 -62 89 -46 q 89 -15 94 23 l 101 89 q 109 162 109 198 q 109 219 106 229 q 100 255 52 254 l 65 382 q 113 382 125 406 q 137 431 149 547 l 156 613 q 160 644 163 666 q 167 688 173 711 q 180 734 189 749 q 198 764 212 779 q 226 793 245 802 q 264 811 289 817 q 315 824 348 827 q 380 830 422 830 l 410 714 q 381 714 366 710 q 351 707 339 694 q 328 682 323 661 q 318 641 314 602 l 307 527 q 302 479 295 447 q 288 414 275 386 q 262 358 242 341 q 222 325 193 318 q 229 310 247 282 q 265 254 267 211 q 267 202 267 191 q 267 155 263 109 l 255 35 q 252 3 252 -15 q 252 -34 255 -47 q 258 -61 268 -67 q 277 -73 291 -75 q 304 -78 327 -78 z"},"9":{"x_min":0,"x_max":547,"ha":547,"o":"m 243 -13 q 184 -13 144 1 q 105 14 84 42 q 64 70 58 107 q 55 127 55 150 q 55 172 58 198 l 59 212 l 229 212 q 225 186 225 167 q 225 154 227 145 q 231 123 259 123 q 289 123 297 148 q 306 174 317 273 q 317 278 318 281 l 324 340 q 311 321 284 310 q 258 299 226 298 q 222 298 218 298 q 186 299 160 310 q 132 322 115 345 q 97 368 86 399 q 76 430 75 466 q 74 475 74 484 q 74 512 77 542 q 91 679 151 750 q 211 822 332 822 q 450 821 499 755 q 537 703 537 616 q 537 593 534 567 l 502 258 q 497 208 487 169 q 477 130 457 95 q 438 60 410 37 q 382 14 340 0 q 298 -13 243 -13 z m 293 437 q 320 437 337 464 l 351 598 q 354 629 354 646 q 354 665 345 677 q 336 690 318 690 q 309 690 302 687 q 294 684 289 676 q 284 667 280 658 q 276 649 273 632 q 270 614 268 599 q 266 583 263 556 q 259 512 259 487 q 259 473 260 465 q 266 437 293 437 z"}," ":{"x_min":0,"x_max":231,"ha":231,"o":""},"I":{"x_min":0,"x_max":313,"ha":313,"o":"m 35 0 l 120 810 l 314 810 l 229 0 z"},"H":{"x_min":0,"x_max":614,"ha":614,"o":"m 34 0 l 119 810 l 314 810 l 281 488 l 387 488 l 421 810 l 616 810 l 531 0 l 336 0 l 373 349 l 266 349 l 229 0 z"},"4":{"x_min":0,"x_max":547,"ha":547,"o":"m 258 0 l 277 180 l 26 180 l 40 305 l 304 810 l 502 810 l 449 305 l 523 305 l 510 180 l 436 180 l 417 0 z m 168 305 l 290 305 l 325 640 z"},"~":{"x_min":0,"x_max":490,"ha":490,"o":"m 345 325 q 320 325 286 340 q 252 355 223 370 q 193 385 179 385 q 167 385 145 371 q 124 357 106 334 l 60 406 q 84 445 120 475 q 155 504 187 504 q 212 504 246 490 q 280 475 309 460 q 337 446 351 446 q 363 446 384 460 q 404 475 423 496 l 478 436 q 457 393 418 359 q 379 325 345 325 z"},"D":{"x_min":0,"x_max":599,"ha":599,"o":"m 244 135 l 264 135 q 290 135 306 139 q 321 144 330 155 q 339 167 343 180 q 346 193 349 219 l 389 594 q 391 609 391 621 q 391 632 389 641 q 386 659 370 667 q 354 675 320 675 l 300 675 z m 34 0 l 119 810 l 331 810 q 414 810 466 796 q 519 782 547 750 q 576 717 584 670 q 588 646 588 616 q 588 587 584 552 l 554 260 q 546 188 528 141 q 510 93 475 61 q 439 28 384 14 q 329 0 247 0 z"},"^":{"x_min":0,"x_max":484,"ha":484,"o":"m 54 472 l 235 810 l 369 810 l 480 472 l 333 472 l 286 656 l 200 472 z"},"0":{"x_min":0,"x_max":547,"ha":547,"o":"m 265 147 q 305 147 312 219 l 350 580 q 353 601 353 615 q 353 627 351 634 q 344 658 319 658 q 311 658 304 656 q 297 653 293 649 q 289 646 285 639 q 281 632 279 628 q 277 624 276 615 q 274 605 273 602 q 273 599 272 590 q 271 581 271 580 l 233 219 q 232 211 232 207 q 232 202 232 192 q 232 182 234 175 q 236 169 239 162 q 242 154 249 151 q 256 147 265 147 z m 248 -17 q 139 -17 87 46 q 44 97 44 177 q 44 194 46 213 l 85 586 q 97 696 160 760 q 223 823 336 823 q 448 822 498 759 q 539 707 539 626 q 539 607 536 586 l 497 213 q 486 109 420 46 q 354 -17 248 -17 z"},"F":{"x_min":0,"x_max":445,"ha":445,"o":"m 34 0 l 119 810 l 479 810 l 466 679 l 300 679 l 281 490 l 428 490 l 414 355 l 267 355 l 229 0 z"},"`":{"x_min":0,"x_max":315,"ha":315,"o":"m 206 607 l 97 810 l 279 810 l 319 607 z"},"k":{"x_min":0,"x_max":568,"ha":568,"o":"m 26 0 l 111 810 l 285 810 l 239 368 l 399 578 l 600 578 l 417 339 l 538 0 l 342 0 l 271 270 l 223 220 l 200 0 z"},"u":{"x_min":0,"x_max":519,"ha":519,"o":"m 131 -11 q 79 -11 53 27 q 32 58 32 104 q 32 116 34 129 l 81 578 l 257 578 l 211 144 q 211 139 211 135 q 211 106 236 106 q 237 106 238 106 q 257 107 280 120 l 328 578 l 504 578 l 444 0 l 268 0 l 273 52 q 199 -11 131 -11 z"},"]":{"x_min":0,"x_max":328,"ha":328,"o":"m -23 -185 l -17 -120 l 110 -120 l 200 745 l 74 745 l 81 810 l 338 810 l 235 -185 z"},"U":{"x_min":0,"x_max":598,"ha":598,"o":"m 56 134 q 52 157 52 186 q 52 214 55 246 l 114 810 l 308 810 l 246 214 q 243 200 244 184 q 245 169 248 156 q 250 144 261 135 q 271 127 288 127 q 302 127 312 133 q 323 138 329 146 q 335 154 339 167 q 344 180 345 190 q 347 200 349 214 l 411 810 l 605 810 l 546 246 q 539 180 522 134 q 505 87 474 54 q 442 20 392 4 q 343 -12 273 -12 q 203 -12 157 4 q 111 20 87 54 q 62 87 56 134 z"},"o":{"x_min":0,"x_max":498,"ha":498,"o":"m 235 105 q 254 105 264 119 q 275 132 278 161 l 305 417 q 306 426 306 434 q 306 450 300 459 q 292 473 273 473 q 237 473 231 417 l 205 161 q 204 153 204 146 q 204 105 235 105 z m 222 -11 q 176 -11 139 1 q 103 12 77 34 q 51 57 39 92 q 31 117 31 147 q 31 160 32 173 l 57 405 q 66 495 128 542 q 190 589 285 589 q 332 589 369 577 q 406 566 432 544 q 458 521 470 486 q 479 461 479 430 q 479 418 478 405 l 453 173 q 443 83 381 36 q 318 -11 222 -11 z"},"N":{"x_min":0,"x_max":568,"ha":568,"o":"m 34 0 l 119 810 l 257 810 l 371 456 l 408 810 l 570 810 l 485 0 l 352 0 l 243 387 l 202 0 z"},"+":{"x_min":0,"x_max":457,"ha":457,"o":"m 168 206 l 185 365 l 41 365 l 51 464 l 195 464 l 211 619 l 326 619 l 310 464 l 455 464 l 445 365 l 299 365 l 282 206 z"},"G":{"x_min":0,"x_max":590,"ha":590,"o":"m 248 -13 q 197 -13 160 1 q 122 14 99 39 q 77 63 63 99 q 51 133 49 176 q 48 188 48 201 q 48 233 51 269 l 80 541 q 87 607 105 657 q 123 707 156 745 q 188 783 239 802 q 290 822 359 822 q 414 822 455 810 q 496 799 521 778 q 545 756 561 727 q 575 698 578 662 q 579 646 579 629 q 579 608 577 584 l 571 528 l 379 528 l 387 604 q 389 616 389 623 q 389 630 389 642 q 389 653 387 659 q 384 666 380 673 q 375 680 367 683 q 359 687 347 687 q 330 687 318 679 q 306 671 300 657 q 293 644 291 631 q 288 619 286 602 l 245 209 q 243 194 244 179 q 246 164 250 152 q 254 139 265 131 q 276 124 293 124 q 325 124 342 149 q 359 175 362 210 l 373 313 l 307 313 l 319 425 l 561 425 l 516 0 l 386 0 l 382 61 q 339 -13 248 -13 z"},"q":{"x_min":0,"x_max":520,"ha":520,"o":"m 250 -190 l 275 50 q 208 -11 147 -11 q 84 -11 55 32 q 31 65 31 122 q 31 137 33 154 l 62 423 q 69 499 110 544 q 150 589 211 589 q 274 589 327 539 l 331 578 l 507 578 l 426 -190 z m 241 98 q 256 98 282 114 l 319 471 q 300 482 283 482 q 265 482 253 469 q 242 456 240 434 l 209 144 q 209 139 209 135 q 209 122 216 111 q 225 98 241 98 z"},"d":{"x_min":0,"x_max":519,"ha":519,"o":"m 148 -11 q 86 -11 56 32 q 32 65 32 120 q 32 136 34 154 l 62 423 q 70 499 110 544 q 150 589 212 589 q 273 589 325 542 l 353 810 l 529 810 l 444 0 l 268 0 l 272 46 q 208 -11 148 -11 z m 240 98 q 256 98 279 111 l 317 473 q 299 482 283 482 q 265 482 254 469 q 243 456 240 434 l 210 144 q 209 140 209 136 q 209 122 216 111 q 224 99 240 98 z"},"1":{"x_min":0,"x_max":547,"ha":547,"o":"m 179 0 l 247 639 l 137 585 l 151 720 q 155 722 174 733 q 193 743 209 752 q 226 761 246 773 q 266 784 281 794 q 296 804 304 810 l 447 810 l 362 0 z"},"5":{"x_min":0,"x_max":547,"ha":547,"o":"m 251 -17 q 197 -17 159 -4 q 121 8 100 30 q 79 52 68 84 q 58 115 58 153 q 58 191 62 240 l 237 240 q 233 203 233 178 q 233 153 237 140 q 245 117 274 117 q 276 117 278 117 q 287 117 293 120 q 300 123 305 129 q 310 136 314 142 q 318 148 321 161 q 325 173 327 183 q 329 192 332 211 q 334 230 335 243 q 337 255 339 280 q 343 314 343 342 q 343 344 343 346 q 343 375 331 393 q 320 411 297 411 q 273 411 257 393 q 242 375 232 336 l 75 336 l 142 810 l 528 810 l 513 663 l 271 663 l 244 509 q 253 521 281 531 q 310 542 342 545 q 356 547 368 547 q 441 547 479 488 q 513 436 513 345 q 513 315 509 282 q 504 235 497 199 q 490 164 478 128 q 466 92 447 67 q 428 42 402 22 q 375 2 337 -7 q 299 -17 251 -17 z"}}}
